<?xml version="1.0" standalone="no"?><!-- Generator: Gravit.io --><svg xmlns="http://www.w3.org/2000/svg" xmlns:xlink="http://www.w3.org/1999/xlink" style="isolation:isolate" viewBox="500.343 146.282 33.18 29.2" width="33.18" height="29.2"><defs><clipPath id="_clipPath_fyA6ibwCscZXP2zVDxYM4xog3J6riHdn"><rect x="500.343" y="146.282" width="33.18" height="29.2"/></clipPath></defs><g clip-path="url(#_clipPath_fyA6ibwCscZXP2zVDxYM4xog3J6riHdn)"><path d=" M 531.653 175.483 L 516.933 175.483 L 502.213 175.483 C 500.543 175.483 499.865 174.309 500.7 172.863 L 508.06 160.115 L 515.42 147.367 C 516.255 145.921 517.611 145.921 518.445 147.367 L 525.805 160.115 L 533.166 172.863 C 534 174.309 533.323 175.483 531.653 175.483 Z " fill="rgb(255,0,0)"/><path d="M 516.933 151.237 L 516.933 151.237 C 517.428 151.237 517.829 151.689 517.829 152.245 L 517.829 166.913 C 517.829 167.47 517.428 167.921 516.933 167.921 L 516.933 167.921 C 516.438 167.921 516.036 167.47 516.036 166.913 L 516.036 152.245 C 516.036 151.689 516.438 151.237 516.933 151.237 Z" style="stroke:none;fill:#000000;stroke-miterlimit:10;"/><path d="M 516.933 170.692 L 516.933 170.692 C 517.428 170.692 517.829 171.094 517.829 171.589 L 517.829 171.694 C 517.829 172.189 517.428 172.591 516.933 172.591 L 516.933 172.591 C 516.438 172.591 516.036 172.189 516.036 171.694 L 516.036 171.589 C 516.036 171.094 516.438 170.692 516.933 170.692 Z" style="stroke:none;fill:#000000;stroke-miterlimit:10;"/></g></svg>