<?xml version="1.0" encoding="UTF-8" standalone="no"?>
<!-- Created with Inkscape (http://www.inkscape.org/) -->

<svg
   xmlns:dc="http://purl.org/dc/elements/1.1/"
   xmlns:cc="http://creativecommons.org/ns#"
   xmlns:rdf="http://www.w3.org/1999/02/22-rdf-syntax-ns#"
   xmlns:svg="http://www.w3.org/2000/svg"
   xmlns="http://www.w3.org/2000/svg"
   xmlns:sodipodi="http://sodipodi.sourceforge.net/DTD/sodipodi-0.dtd"
   xmlns:inkscape="http://www.inkscape.org/namespaces/inkscape"
   width="210mm"
   height="297mm"
   viewBox="0 0 210 297"
   version="1.1"
   id="svg8"
   inkscape:version="0.92.3 (2405546, 2018-03-11)"
   sodipodi:docname="drawing.svg">
  <defs
     id="defs2">
    <marker
       inkscape:stockid="Arrow1Lstart"
       orient="auto"
       refY="0.0"
       refX="0.0"
       id="marker1485"
       style="overflow:visible"
       inkscape:isstock="true">
      <path
         id="path1483"
         d="M 0.0,0.0 L 5.0,-5.0 L -12.5,0.0 L 5.0,5.0 L 0.0,0.0 z "
         style="fill-rule:evenodd;stroke:#000000;stroke-width:1pt;stroke-opacity:1;fill:#000000;fill-opacity:1"
         transform="scale(0.8) translate(12.5,0)" />
    </marker>
    <marker
       inkscape:stockid="Arrow1Lstart"
       orient="auto"
       refY="0.0"
       refX="0.0"
       id="Arrow1Lstart"
       style="overflow:visible"
       inkscape:isstock="true">
      <path
         id="path1171"
         d="M 0.0,0.0 L 5.0,-5.0 L -12.5,0.0 L 5.0,5.0 L 0.0,0.0 z "
         style="fill-rule:evenodd;stroke:#000000;stroke-width:1pt;stroke-opacity:1;fill:#000000;fill-opacity:1"
         transform="scale(0.8) translate(12.5,0)" />
    </marker>
  </defs>
  <sodipodi:namedview
     id="base"
     pagecolor="#ffffff"
     bordercolor="#666666"
     borderopacity="1.0"
     inkscape:pageopacity="0.0"
     inkscape:pageshadow="2"
     inkscape:zoom="1.0175018"
     inkscape:cx="316.84648"
     inkscape:cy="408.94274"
     inkscape:document-units="mm"
     inkscape:current-layer="layer1"
     showgrid="false"
     inkscape:snap-bbox="true"
     inkscape:bbox-paths="true"
     inkscape:bbox-nodes="true"
     inkscape:snap-bbox-edge-midpoints="true"
     inkscape:snap-bbox-midpoints="true"
     inkscape:object-paths="true"
     inkscape:snap-intersection-paths="true"
     inkscape:snap-smooth-nodes="true"
     inkscape:snap-midpoints="true"
     inkscape:snap-object-midpoints="true"
     inkscape:snap-center="true"
     inkscape:window-width="1366"
     inkscape:window-height="715"
     inkscape:window-x="-8"
     inkscape:window-y="-8"
     inkscape:window-maximized="1"
     inkscape:snap-global="true" />
  <metadata
     id="metadata5">
    <rdf:RDF>
      <cc:Work
         rdf:about="">
        <dc:format>image/svg+xml</dc:format>
        <dc:type
           rdf:resource="http://purl.org/dc/dcmitype/StillImage" />
        <dc:title></dc:title>
      </cc:Work>
    </rdf:RDF>
  </metadata>
  <g
     inkscape:groupmode="layer"
     id="layer2"
     inkscape:label="Layer 2" />
  <g
     inkscape:label="Layer 1"
     inkscape:groupmode="layer"
     id="layer1">
    <g
       id="g1547"
       transform="matrix(0.24257799,0,0,0.24257799,95.552722,140.87027)"
       inkscape:export-filename="C:\Users\caner\Desktop\PassGen\resources\welcome_screen.png"
       inkscape:export-xdpi="96"
       inkscape:export-ydpi="96">
      <path
         inkscape:connector-curvature="0"
         id="path1165"
         d="m 55.103516,257.08984 c -11.282594,-0.59921 -19.863282,5.33789 -19.863282,5.33789 a 5.0005,5.0005 0 1 0 5.574219,8.30079 c 0,0 6.292995,-4.05086 13.759766,-3.6543 7.46677,0.39656 16.651043,4.32948 23.992187,25.125 6.207041,17.5829 18.777566,25.62426 29.371094,28.61133 10.59353,2.98706 19.67969,1.42187 19.67969,1.42187 a 5.0005,5.0005 0 1 0 -1.67188,-9.85937 c 0,0 -6.97898,1.15679 -15.29297,-1.1875 -8.31398,-2.3443 -17.492208,-7.6861 -22.656246,-22.31446 -8.167525,-23.13644 -21.609985,-31.18203 -32.892578,-31.78125 z"
         style="color:#000000;font-style:normal;font-variant:normal;font-weight:normal;font-stretch:normal;font-size:medium;line-height:normal;font-family:sans-serif;font-variant-ligatures:normal;font-variant-position:normal;font-variant-caps:normal;font-variant-numeric:normal;font-variant-alternates:normal;font-feature-settings:normal;text-indent:0;text-align:start;text-decoration:none;text-decoration-line:none;text-decoration-style:solid;text-decoration-color:#000000;letter-spacing:normal;word-spacing:normal;text-transform:none;writing-mode:lr-tb;direction:ltr;text-orientation:mixed;dominant-baseline:auto;baseline-shift:baseline;text-anchor:start;white-space:normal;shape-padding:0;clip-rule:nonzero;display:inline;overflow:visible;visibility:visible;opacity:1;isolation:auto;mix-blend-mode:normal;color-interpolation:sRGB;color-interpolation-filters:linearRGB;solid-color:#000000;solid-opacity:1;vector-effect:none;fill:#da8dad;fill-opacity:1;fill-rule:nonzero;stroke:#000000;stroke-width:2;stroke-linecap:round;stroke-linejoin:miter;stroke-miterlimit:4;stroke-dasharray:none;stroke-dashoffset:0;stroke-opacity:1;color-rendering:auto;image-rendering:auto;shape-rendering:auto;text-rendering:auto;enable-background:accumulate" />
      <path
         sodipodi:nodetypes="csscscssssssssscsccssccc"
         inkscape:connector-curvature="0"
         id="path1090"
         d="m 234.00454,433.30746 c 0,0 4.63908,-18.46069 -23.96325,-19.61848 -25.17088,-1.0189 -57.21165,-42.9673 3.23979,-73.39132 37.87764,-19.06307 2.6727,-110.11504 6.94901,-132.56568 4.27631,-22.45064 41.12969,-120.384163 63.07561,-115.994977 24.05426,4.810854 13.36348,-63.610148 -12.2944,-48.643054 -25.65787,14.967093 -2.13816,36.348656 -19.24341,63.075611 -17.10524,26.72695 -59.33383,93.00979 -41.1595,22.98518 18.17433,-70.024619 -43.8322,-102.631502 -43.8322,-102.631502 4.27631,-5.879929 10.15624,-109.045967 -37.41774,-83.922631 -47.573975,25.123335 18.70887,75.904545 18.70887,75.904545 C 98.889725,12.090684 64.679226,47.904799 64.679226,47.904799 26.726951,-16.774425 -24.054257,16.901535 -8.0180856,46.301183 8.0180856,75.700831 56.126599,72.493597 56.126599,72.493597 c 0,0 -15.422921,6.637329 -3.741772,58.799293 15.617817,69.74108 112.303223,39.38546 110.115043,58.7993 -65.701396,17.50492 -121.823049,62.29317 -148.601855,48.10851 -47.809143,-25.32438 -51.315749,4.27632 -38.486812,23.51972 23.77357783,19.85252 158.518527,-47.12645 162.910847,-29.64408 1.06908,16.03618 -27.13793,106.61771 0.6581,116.23941 27.79604,9.6217 17.10525,64.14469 6.41447,64.14469 -10.69078,0 -47.039434,-1.06908 -39.55589,20.31248 l 58.7993,0.27533 z"
         style="fill:#da8dad;fill-opacity:1;stroke:#000000;stroke-width:2;stroke-linecap:round;stroke-linejoin:round;stroke-miterlimit:4;stroke-dasharray:none;stroke-opacity:1" />
      <path
         inkscape:connector-curvature="0"
         id="path1092"
         d="m 169.33333,353.69642 v 79.375"
         style="fill:none;stroke:#000000;stroke-width:2;stroke-linecap:butt;stroke-linejoin:miter;stroke-miterlimit:4;stroke-dasharray:none;stroke-opacity:1" />
      <path
         inkscape:connector-curvature="0"
         id="path1094"
         d="m 156.35267,349.38483 c 0,0 11.49259,10.95803 25.39061,0"
         style="fill:none;stroke:#000000;stroke-width:2;stroke-linecap:round;stroke-linejoin:miter;stroke-miterlimit:4;stroke-dasharray:none;stroke-opacity:1" />
      <path
         inkscape:connector-curvature="0"
         id="path1096"
         d="m -4.0090428,230.44452 c 0,0 14.9670928,22.98518 -2.4054258,26.99422 -17.3725194,4.00904 -15.2343624,-5.34539 -15.2343624,-5.34539"
         style="fill:none;stroke:#000000;stroke-width:2;stroke-linecap:round;stroke-linejoin:miter;stroke-miterlimit:4;stroke-dasharray:none;stroke-opacity:1" />
      <path
         inkscape:connector-curvature="0"
         id="path1098"
         d="m -14.400891,258.80551 c 0,0 -2.267857,3.2128 -5.953125,1.51191"
         style="fill:none;stroke:#000000;stroke-width:2;stroke-linecap:round;stroke-linejoin:miter;stroke-miterlimit:4;stroke-dasharray:none;stroke-opacity:1" />
      <path
         sodipodi:nodetypes="cczccczsczc"
         inkscape:connector-curvature="0"
         id="path1100"
         d="m 184.97573,164.18528 c 0,0 68.61882,-81.042951 -21.4229,-136.56073 12.85275,-84.016552 -19.57584,-91.362784 -36.11413,-75.345411 -16.53828,16.017373 18.27729,48.4791878 28.11217,72.656599 0,0 -41.96132,-8.836012 -85.526254,26.978105 l -4.276312,5.078121 c 0,0 -36.668069,-52.3760887 -60.670183,-36.883195 -24.002114,15.492894 1.3363481,36.081387 5.87993,37.952273 4.543582,1.870887 18.687377,10.156242 52.630607,10.156242 0,0 -6.779956,59.455936 24.414978,84.218926 31.194934,24.763 96.972094,11.74907 96.972094,11.74907 z"
         style="fill:#c835ad;fill-opacity:1;stroke:none;stroke-width:0.26458332px;stroke-linecap:butt;stroke-linejoin:miter;stroke-opacity:1" />
      <path
         sodipodi:nodetypes="csc"
         inkscape:connector-curvature="0"
         id="path1102"
         d="m 268.33629,45.26417 c 0,0 -5.6064,20.553664 8.94744,31.469039 14.55383,10.915375 13.94597,-3.568426 13.94597,-3.568426"
         style="fill:none;stroke:#000000;stroke-width:2;stroke-linecap:round;stroke-linejoin:miter;stroke-miterlimit:4;stroke-dasharray:none;stroke-opacity:1" />
      <path
         sodipodi:nodetypes="cc"
         inkscape:connector-curvature="0"
         id="path1104"
         d="m 288.09796,80.416524 c 0,0 3.37513,2.626304 5.41674,-0.752588"
         style="fill:none;stroke:#000000;stroke-width:2;stroke-linecap:round;stroke-linejoin:miter;stroke-miterlimit:4;stroke-dasharray:none;stroke-opacity:1" />
      <path
         inkscape:connector-curvature="0"
         id="path1106"
         d="m 109.60855,133.72419 c 0,0 61.85379,10.46056 79.13647,-39.11343"
         style="fill:none;stroke:#000000;stroke-width:2;stroke-linecap:round;stroke-linejoin:miter;stroke-miterlimit:4;stroke-dasharray:none;stroke-opacity:1" />
      <path
         inkscape:connector-curvature="0"
         id="path1108"
         d="m 126.87014,135.07575 c 0,0 52.74196,31.83814 54.67154,-26.04938 -18.49185,26.21018 -54.67154,26.04938 -54.67154,26.04938 z"
         style="fill:#fffdff;fill-opacity:1;stroke:#000000;stroke-width:2;stroke-linecap:round;stroke-linejoin:miter;stroke-miterlimit:4;stroke-dasharray:none;stroke-opacity:1" />
      <path
         inkscape:connector-curvature="0"
         id="path1110"
         d="m 108.53909,124.46304 c 0,0 5.14556,10.45191 -5.46715,15.11508"
         style="fill:none;fill-opacity:1;stroke:#000000;stroke-width:2;stroke-linecap:round;stroke-linejoin:miter;stroke-miterlimit:4;stroke-dasharray:none;stroke-opacity:1" />
      <path
         style="fill:none;fill-opacity:1;stroke:#000000;stroke-width:2;stroke-linecap:round;stroke-linejoin:miter;stroke-miterlimit:4;stroke-dasharray:none;stroke-opacity:1"
         d="m 182.83144,88.39959 c 0,0 5.40507,10.320097 15.43048,4.500634"
         id="path1112"
         inkscape:connector-curvature="0" />
      <g
         transform="translate(-5.2916669,-0.52916667)"
         id="g1120">
        <path
           style="fill:none;stroke:#000000;stroke-width:2;stroke-linecap:round;stroke-linejoin:miter;stroke-miterlimit:4;stroke-dasharray:none;stroke-opacity:1"
           d="m 94.372508,79.829524 c 19.556712,-1.364422 32.973532,4.093266 32.973532,4.093266 0,0 -11.82499,4.320669 -13.87162,13.189411"
           id="path1114"
           inkscape:connector-curvature="0" />
        <path
           style="fill:none;stroke:#000000;stroke-width:2;stroke-linecap:round;stroke-linejoin:miter;stroke-miterlimit:4;stroke-dasharray:none;stroke-opacity:1"
           d="m 126.70934,84.02218 c 0,0 -19.77824,-1.527587 -43.254839,12.301096"
           id="path1116"
           inkscape:connector-curvature="0" />
      </g>
      <g
         transform="matrix(-0.56552985,0.82472783,0.82472783,0.56552985,148.67699,-76.482361)"
         id="g1126">
        <path
           inkscape:connector-curvature="0"
           id="path1122"
           d="m 94.372508,79.829524 c 19.556712,-1.364422 32.973532,4.093266 32.973532,4.093266 0,0 -11.82499,4.320669 -13.87162,13.189411"
           style="fill:none;stroke:#000000;stroke-width:2;stroke-linecap:round;stroke-linejoin:miter;stroke-miterlimit:4;stroke-dasharray:none;stroke-opacity:1" />
        <path
           inkscape:connector-curvature="0"
           id="path1124"
           d="m 126.70934,84.02218 c 0,0 -19.77824,-1.527587 -43.254839,12.301096"
           style="fill:none;stroke:#000000;stroke-width:2;stroke-linecap:round;stroke-linejoin:miter;stroke-miterlimit:4;stroke-dasharray:none;stroke-opacity:1" />
      </g>
      <path
         transform="matrix(-0.06040176,0.02982003,-0.02982003,-0.06040176,142.08825,113.88053)"
         inkscape:transform-center-y="-1.5031994"
         inkscape:transform-center-x="1.2226358"
         d="m -54.576864,155.10013 c -14.069751,26.86043 -80.329046,35.67525 -110.625736,36.9207 -30.29669,1.24546 -97.05592,-2.10116 -113.28286,-27.71613 -16.22694,-25.61498 9.26885,-87.404625 23.3386,-114.265056 14.06975,-26.860429 50.34762,-83.002312 80.64431,-84.247766 30.29669,-1.245453 71.06019,51.729369 87.287135,77.344346 16.226939,25.614974 46.708301,85.103476 32.638551,111.963906 z"
         inkscape:randomized="0"
         inkscape:rounded="0.26"
         inkscape:flatsided="false"
         sodipodi:arg2="1.5297109"
         sodipodi:arg1="0.4825133"
         sodipodi:r2="97.037155"
         sodipodi:r1="129.38287"
         sodipodi:cy="95.065567"
         sodipodi:cx="-169.18829"
         sodipodi:sides="3"
         id="path1132"
         style="fill:#171117;fill-opacity:1;fill-rule:nonzero;stroke:none;stroke-width:2;stroke-linecap:round;stroke-linejoin:round;stroke-miterlimit:4;stroke-dasharray:none;stroke-opacity:1"
         sodipodi:type="star" />
      <circle
         r="10.687971"
         cy="128.33652"
         cx="95.955688"
         id="path1134"
         style="fill:#ff00bd;fill-opacity:1;fill-rule:nonzero;stroke:none;stroke-width:2;stroke-linecap:round;stroke-linejoin:round;stroke-miterlimit:4;stroke-dasharray:none;stroke-opacity:1" />
      <circle
         style="fill:#ff00bd;fill-opacity:1;fill-rule:nonzero;stroke:none;stroke-width:2;stroke-linecap:round;stroke-linejoin:round;stroke-miterlimit:4;stroke-dasharray:none;stroke-opacity:1"
         id="circle1136"
         cx="193.52049"
         cy="79.37471"
         r="10.687971" />
      <path
         inkscape:connector-curvature="0"
         id="path1138"
         d="m 139.85324,140.7737 c 0,0 16.37306,2.72884 40.25044,-17.96489"
         style="fill:none;stroke:#000000;stroke-width:2;stroke-linecap:butt;stroke-linejoin:miter;stroke-miterlimit:4;stroke-dasharray:none;stroke-opacity:1" />
      <path
         sodipodi:nodetypes="ccscssc"
         inkscape:connector-curvature="0"
         id="path1140"
         d="m -17.366255,227.53498 -4.823959,-21.86862 c 0,0 12.2206975,-20.90382 3.53757,-27.33577 -8.683127,-6.43195 -11.577502,6.75354 -11.577502,6.75354 0,0 -6.145449,-9.05967 -12.880055,-3.42052 -5.311089,4.44719 -2.36823,14.1826 7.922884,19.32816 10.291115,5.14556 12.675506,4.67459 12.675506,4.67459"
         style="fill:none;stroke:#000000;stroke-width:2;stroke-linecap:round;stroke-linejoin:miter;stroke-miterlimit:4;stroke-dasharray:none;stroke-opacity:1" />
      <g
         id="g1155">
        <path
           style="fill:none;stroke:#000000;stroke-width:2;stroke-linecap:round;stroke-linejoin:miter;stroke-miterlimit:4;stroke-dasharray:none;stroke-opacity:1"
           d="m -9.0047245,258.08672 5.4203835,24.32736"
           id="path1142"
           inkscape:connector-curvature="0"
           sodipodi:nodetypes="cc" />
        <rect
           style="fill:#000000;fill-opacity:1;fill-rule:nonzero;stroke:none;stroke-width:2;stroke-linecap:round;stroke-linejoin:round;stroke-miterlimit:4;stroke-dasharray:none;stroke-opacity:1"
           id="rect1146"
           width="6.1398983"
           height="6.5947056"
           x="-62.512909"
           y="268.83472"
           ry="0.45886952"
           transform="rotate(-10.661057)" />
        <rect
           transform="matrix(0.98469039,-0.17431247,0.19066636,0.9816549,0,0)"
           ry="0.32657516"
           y="262.08276"
           x="-62.719212"
           height="4.6934195"
           width="4.5599036"
           id="rect1148"
           style="fill:#000000;fill-opacity:1;fill-rule:nonzero;stroke:none;stroke-width:1.45403278;stroke-linecap:round;stroke-linejoin:round;stroke-miterlimit:4;stroke-dasharray:none;stroke-opacity:1" />
      </g>
      <path
         style="fill:none;stroke:#000000;stroke-width:2;stroke-linecap:round;stroke-linejoin:miter;stroke-miterlimit:4;stroke-dasharray:none;stroke-opacity:1"
         d="m 268.93693,43.470961 -9.37981,-20.335343 c 0,0 7.47808,-23.03027779 -2.37766,-27.4609843 -9.85574,-4.4307036 -9.86951,9.0687137 -9.86951,9.0687137 0,0 -7.9373,-7.5394574 -13.31331,-0.5929839 -4.23966,5.4781798 0.71304,14.3612785 11.86519,17.1920685 11.15215,2.830792 13.3811,1.861819 13.3811,1.861819"
         id="path1150"
         inkscape:connector-curvature="0"
         sodipodi:nodetypes="ccscssc" />
      <g
         transform="rotate(-11.655201,-724.05977,-1283.919)"
         id="g1163">
        <path
           sodipodi:nodetypes="cc"
           inkscape:connector-curvature="0"
           id="path1157"
           d="m -9.0047245,258.08672 5.4203835,24.32736"
           style="fill:none;stroke:#000000;stroke-width:2;stroke-linecap:round;stroke-linejoin:miter;stroke-miterlimit:4;stroke-dasharray:none;stroke-opacity:1" />
        <rect
           transform="rotate(-10.661057)"
           ry="0.45886952"
           y="268.83472"
           x="-62.512909"
           height="6.5947056"
           width="6.1398983"
           id="rect1159"
           style="fill:#000000;fill-opacity:1;fill-rule:nonzero;stroke:none;stroke-width:2;stroke-linecap:round;stroke-linejoin:round;stroke-miterlimit:4;stroke-dasharray:none;stroke-opacity:1" />
        <rect
           style="fill:#000000;fill-opacity:1;fill-rule:nonzero;stroke:none;stroke-width:1.45403278;stroke-linecap:round;stroke-linejoin:round;stroke-miterlimit:4;stroke-dasharray:none;stroke-opacity:1"
           id="rect1161"
           width="4.5599036"
           height="4.6934195"
           x="-62.719212"
           y="262.08276"
           ry="0.32657516"
           transform="matrix(0.98469039,-0.17431247,0.19066636,0.9816549,0,0)" />
      </g>
    </g>
  </g>
</svg>
